<svg id="AU_Formal_Horizontal" data-name="AU Formal Horizontal" xmlns="http://www.w3.org/2000/svg" viewBox="0 0 119.7 104.52"><defs><style>.cls-1{fill:#e86100;}.cls-2{fill:#0b2341;}</style></defs><g id="AU_PMS" data-name="AU PMS"><path class="cls-1" d="M46.94,41.69H72.77L59.85,18.78Zm5.72-3.35,7.19-12.75L67,38.34Z"/><path class="cls-1" d="M119.7,30.07V13.74H83v7.11L71.2,0H48.5L36.74,20.85V13.74H0V30.07H7.4V63.23h-7V79.79H7.65c1.35,8.39,9.48,24.73,52.2,24.73s50.86-16.34,52.2-24.73h7.3V63.23h-7V30.07ZM3.35,26.73V17.09h30v9.64H25.1V41.5L12.84,63.23H10.75V26.73Zm28.19,3.34-3.1,5.5v-5.5Zm28.31,71.1C26.71,101.17,13,90.89,11,79.79H27.56C33.33,87.06,48.14,89,59.85,89s26.52-1.92,32.29-9.19h16.54c-2,11.1-15.69,21.38-48.83,21.38M38.63,63.23l4.44-7.88H76.63l4.44,7.88H71.29V79.79H87.36c-7.12,5.32-22,5.85-27.51,5.85s-20.39-.53-27.51-5.85H48.42V63.23ZM116,66.58v9.86H74.63V66.58H86.8L78.58,52H41.12L32.9,66.58H45.07v9.86H3.7V66.58H14.8L50.45,3.35h18.8L104.9,66.58ZM88.16,30.07h3.1v5.5ZM109,26.73v36.5h-2.1L94.6,41.5V26.73H86.31V17.09h30.05v9.64Z"/><path class="cls-2" d="M59.85,89c-11.71,0-26.52-1.92-32.29-9.19H11c2,11.1,15.69,21.38,48.83,21.38s46.81-10.28,48.83-21.38H92.14C86.37,87.06,71.56,89,59.85,89"/><polygon class="cls-2" points="10.75 63.23 12.84 63.23 25.1 41.5 25.1 26.73 33.39 26.73 33.39 17.09 3.35 17.09 3.35 26.73 10.75 26.73 10.75 63.23"/><polygon class="cls-2" points="86.31 17.09 86.31 26.73 94.61 26.73 94.61 41.5 106.86 63.23 108.96 63.23 108.96 26.73 116.36 26.73 116.36 17.09 86.31 17.09"/><path class="cls-2" d="M45.07,66.58H32.9L41.12,52H78.58L86.8,66.58H74.63v9.86H116V66.58H104.9L69.25,3.35H50.45L14.8,66.58H3.7v9.86H45.07Zm14.78-47.8L72.77,41.69H46.94Z"/><path class="cls-2" d="M113.46,88.9a2.83,2.83,0,1,0,2.83,2.83,2.83,2.83,0,0,0-2.83-2.83m0,5a2.22,2.22,0,1,1,2.22-2.22A2.21,2.21,0,0,1,113.46,94"/><path class="cls-2" d="M114.62,91.07a1,1,0,0,0-1-1H112.3v3.24h.6V92h.44l.61,1.32h.67L114,92a1,1,0,0,0,.64-.91m-1,.35h-.76v-.7h.76a.35.35,0,0,1,.35.35.34.34,0,0,1-.35.35"/></g></svg>